<svg width="225" height="54" viewBox="0 0 225 54" fill="none" xmlns="http://www.w3.org/2000/svg">
<path d="M18 36H0V18H18C27.9411 18 36 26.0589 36 36V54H18V36Z" fill="#3177FE"/>
<path d="M36 18H54V36H36C26.0589 36 18 27.9411 18 18V0H36V18Z" fill="#3177FE" fill-opacity="0.2"/>
<path d="M67.4062 16.1738H73.1045L79.1104 30.8369H79.3594L85.3799 16.1738H91.0928V38H86.5811V23.791H86.4053L80.7363 37.8975H77.6895L72.0645 23.7617H71.8887V38H67.4062V16.1738ZM101.303 38.3223C99.623 38.3223 98.1729 37.9805 96.9521 37.2969C95.7314 36.6133 94.7939 35.6416 94.1396 34.3818C93.4951 33.1123 93.1729 31.6133 93.1729 29.8848C93.1729 28.2051 93.4951 26.7305 94.1396 25.4609C94.7939 24.1914 95.7119 23.2002 96.8936 22.4873C98.085 21.7744 99.4814 21.418 101.083 21.418C102.167 21.418 103.178 21.5938 104.115 21.9453C105.053 22.2871 105.873 22.8047 106.576 23.498C107.279 24.1816 107.826 25.0459 108.217 26.0908C108.607 27.126 108.803 28.3418 108.803 29.7383V30.9688H94.9746V28.1709H106.605L104.496 28.9033C104.496 28.0732 104.369 27.3506 104.115 26.7354C103.861 26.1201 103.48 25.6465 102.973 25.3145C102.475 24.9727 101.854 24.8018 101.112 24.8018C100.37 24.8018 99.7402 24.9727 99.2227 25.3145C98.7148 25.6562 98.3242 26.1201 98.0508 26.7061C97.7773 27.292 97.6406 27.9658 97.6406 28.7275V30.7051C97.6406 31.5938 97.7969 32.3555 98.1094 32.9902C98.4219 33.6152 98.8564 34.0986 99.4131 34.4404C99.9795 34.7725 100.629 34.9385 101.361 34.9385C101.869 34.9385 102.328 34.8652 102.738 34.7188C103.148 34.5723 103.5 34.3574 103.793 34.0742C104.096 33.791 104.32 33.4492 104.467 33.0488L108.656 33.3271C108.451 34.333 108.021 35.2119 107.367 35.9639C106.723 36.7061 105.888 37.2871 104.862 37.707C103.837 38.1172 102.65 38.3223 101.303 38.3223ZM116.728 38.2637C115.478 38.2637 114.35 37.9414 113.344 37.2969C112.338 36.6523 111.542 35.7051 110.956 34.4551C110.37 33.1953 110.077 31.6572 110.077 29.8408C110.077 27.9658 110.38 26.4033 110.985 25.1533C111.591 23.9033 112.396 22.9707 113.402 22.3555C114.408 21.7305 115.507 21.418 116.698 21.418C117.616 21.418 118.383 21.5742 118.998 21.8867C119.613 22.1895 120.111 22.5703 120.492 23.0293C120.873 23.4883 121.161 23.9424 121.356 24.3916H121.488V16.1738H126.029V38H121.562V35.3779H121.356C121.151 35.8271 120.854 36.2764 120.463 36.7256C120.072 37.165 119.569 37.5312 118.954 37.8242C118.349 38.1172 117.606 38.2637 116.728 38.2637ZM118.148 34.6602C118.881 34.6602 119.501 34.46 120.009 34.0596C120.526 33.6494 120.917 33.083 121.181 32.3604C121.454 31.6377 121.591 30.793 121.591 29.8262C121.591 28.8496 121.459 28.0049 121.195 27.292C120.932 26.5693 120.541 26.0127 120.023 25.6221C119.506 25.2217 118.881 25.0215 118.148 25.0215C117.406 25.0215 116.781 25.2266 116.273 25.6367C115.766 26.0469 115.38 26.6133 115.116 27.3359C114.853 28.0488 114.721 28.8789 114.721 29.8262C114.721 30.7734 114.853 31.6133 115.116 32.3457C115.38 33.0684 115.766 33.6348 116.273 34.0449C116.791 34.4551 117.416 34.6602 118.148 34.6602ZM128.681 38V21.623H133.207V38H128.681ZM130.937 19.5283C130.263 19.5283 129.687 19.3037 129.208 18.8545C128.729 18.4053 128.49 17.8633 128.49 17.2285C128.49 16.5938 128.729 16.0566 129.208 15.6172C129.687 15.168 130.263 14.9434 130.937 14.9434C131.62 14.9434 132.201 15.168 132.68 15.6172C133.158 16.0566 133.397 16.5938 133.397 17.2285C133.397 17.8633 133.158 18.4053 132.68 18.8545C132.201 19.3037 131.62 19.5283 130.937 19.5283Z" fill="black"/>
<path d="M145.731 38.293C143.798 38.293 142.064 37.8535 140.531 36.9746C138.998 36.0957 137.787 34.8213 136.898 33.1514C136.01 31.4814 135.565 29.4648 135.565 27.1016C135.565 24.7188 136.01 22.6924 136.898 21.0225C137.797 19.3428 139.013 18.0684 140.546 17.1992C142.089 16.3203 143.817 15.8809 145.731 15.8809C147.001 15.8809 148.178 16.0615 149.262 16.4229C150.346 16.7744 151.303 17.292 152.133 17.9756C152.973 18.6494 153.656 19.4795 154.184 20.4658C154.711 21.4424 155.048 22.5605 155.194 23.8203H150.536C150.448 23.2246 150.272 22.6875 150.009 22.209C149.755 21.7305 149.418 21.3252 148.998 20.9932C148.588 20.6611 148.114 20.4072 147.577 20.2314C147.05 20.0459 146.469 19.9531 145.834 19.9531C144.721 19.9531 143.739 20.2363 142.89 20.8027C142.05 21.3594 141.396 22.1699 140.927 23.2344C140.468 24.2891 140.238 25.5781 140.238 27.1016C140.238 28.6543 140.473 29.9629 140.941 31.0273C141.41 32.082 142.064 32.8779 142.904 33.415C143.744 33.9521 144.716 34.2207 145.819 34.2207C146.435 34.2207 147.006 34.1377 147.533 33.9717C148.061 33.8057 148.529 33.5664 148.939 33.2539C149.35 32.9414 149.691 32.5605 149.965 32.1113C150.248 31.6523 150.438 31.1299 150.536 30.5439H155.194C155.077 31.5498 154.779 32.5166 154.301 33.4443C153.832 34.3721 153.192 35.2021 152.382 35.9346C151.571 36.6572 150.609 37.2334 149.496 37.6631C148.383 38.083 147.128 38.293 145.731 38.293ZM162.006 28.5371V38H157.479V16.1738H161.859V24.5381H162.064C162.436 23.5713 163.031 22.8096 163.852 22.2529C164.682 21.6963 165.717 21.418 166.957 21.418C168.09 21.418 169.081 21.667 169.931 22.165C170.78 22.6533 171.439 23.3564 171.908 24.2744C172.387 25.1924 172.626 26.2959 172.626 27.585V38H168.085V28.3906C168.085 27.3848 167.826 26.5986 167.309 26.0322C166.801 25.4658 166.083 25.1826 165.155 25.1826C164.53 25.1826 163.983 25.3193 163.515 25.5928C163.046 25.8564 162.675 26.2373 162.401 26.7354C162.138 27.2334 162.006 27.834 162.006 28.5371ZM182.748 38.3223C181.068 38.3223 179.618 37.9805 178.397 37.2969C177.177 36.6133 176.239 35.6416 175.585 34.3818C174.94 33.1123 174.618 31.6133 174.618 29.8848C174.618 28.2051 174.94 26.7305 175.585 25.4609C176.239 24.1914 177.157 23.2002 178.339 22.4873C179.53 21.7744 180.927 21.418 182.528 21.418C183.612 21.418 184.623 21.5938 185.561 21.9453C186.498 22.2871 187.318 22.8047 188.021 23.498C188.725 24.1816 189.271 25.0459 189.662 26.0908C190.053 27.126 190.248 28.3418 190.248 29.7383V30.9688H176.42V28.1709H188.051L185.941 28.9033C185.941 28.0732 185.814 27.3506 185.561 26.7354C185.307 26.1201 184.926 25.6465 184.418 25.3145C183.92 24.9727 183.3 24.8018 182.558 24.8018C181.815 24.8018 181.186 24.9727 180.668 25.3145C180.16 25.6562 179.77 26.1201 179.496 26.7061C179.223 27.292 179.086 27.9658 179.086 28.7275V30.7051C179.086 31.5938 179.242 32.3555 179.555 32.9902C179.867 33.6152 180.302 34.0986 180.858 34.4404C181.425 34.7725 182.074 34.9385 182.807 34.9385C183.314 34.9385 183.773 34.8652 184.184 34.7188C184.594 34.5723 184.945 34.3574 185.238 34.0742C185.541 33.791 185.766 33.4492 185.912 33.0488L190.102 33.3271C189.896 34.333 189.467 35.2119 188.812 35.9639C188.168 36.7061 187.333 37.2871 186.308 37.707C185.282 38.1172 184.096 38.3223 182.748 38.3223ZM199.564 38.3223C197.895 38.3223 196.459 37.9658 195.258 37.2529C194.057 36.5303 193.134 35.5391 192.489 34.2793C191.845 33.0098 191.522 31.5449 191.522 29.8848C191.522 28.2051 191.845 26.7305 192.489 25.4609C193.144 24.1914 194.071 23.2002 195.272 22.4873C196.474 21.7744 197.904 21.418 199.564 21.418C200.99 21.418 202.235 21.6768 203.3 22.1943C204.374 22.7119 205.224 23.4395 205.849 24.377C206.474 25.3145 206.815 26.418 206.874 27.6875H202.597C202.519 27.1406 202.353 26.6621 202.099 26.252C201.845 25.8418 201.508 25.5244 201.088 25.2998C200.668 25.0752 200.18 24.9629 199.623 24.9629C198.92 24.9629 198.305 25.1533 197.777 25.5342C197.26 25.9053 196.854 26.457 196.562 27.1895C196.278 27.9121 196.137 28.791 196.137 29.8262C196.137 30.8613 196.278 31.75 196.562 32.4922C196.854 33.2344 197.26 33.8008 197.777 34.1914C198.305 34.582 198.92 34.7773 199.623 34.7773C200.404 34.7773 201.063 34.5332 201.601 34.0449C202.138 33.5469 202.47 32.8633 202.597 31.9941H206.874C206.806 33.2441 206.469 34.3477 205.863 35.3047C205.258 36.252 204.423 36.9941 203.358 37.5312C202.294 38.0586 201.029 38.3223 199.564 38.3223ZM212.938 33.2832L212.953 27.8486H213.612L218.842 21.623H224.057L217.025 29.8701H215.927L212.938 33.2832ZM208.837 38V16.1738H213.363V38H208.837ZM219.047 38L214.242 30.8809L217.26 27.6582L224.364 38H219.047Z" fill="#3177FE"/>
</svg>
