<svg width="159" height="148" viewBox="0 0 159 148" fill="none" xmlns="http://www.w3.org/2000/svg">
<path d="M62.3337 66.667H28.9998V33.333H62.3337C63.4844 33.333 64.6213 33.392 65.7419 33.5059C66.3022 33.5628 66.8583 33.6335 67.4099 33.7178C68.5133 33.8864 69.5989 34.1088 70.6638 34.3828C71.1964 34.5198 71.7239 34.6697 72.2458 34.832C85.8147 39.0525 95.6667 51.7093 95.6667 66.667V100H62.3337V66.667Z" fill="#3177FE"/>
<path d="M95.6665 33.333H129V66.667H95.6665C94.5159 66.667 93.3789 66.608 92.2583 66.4941C91.6981 66.4372 91.142 66.3665 90.5903 66.2822C89.487 66.1136 88.4014 65.8912 87.3364 65.6172C86.8038 65.4802 86.2764 65.3303 85.7544 65.168C72.1855 60.9475 62.3335 48.2907 62.3335 33.333V0H95.6665V33.333Z" fill="#3177FE" fill-opacity="0.2"/>
<path d="M1.40625 119.174H7.10449L13.1104 133.837H13.3594L19.3799 119.174H25.0928V141H20.5811V126.791H20.4053L14.7363 140.897H11.6895L6.06445 126.762H5.88867V141H1.40625V119.174ZM35.3027 141.322C33.623 141.322 32.1729 140.98 30.9521 140.297C29.7314 139.613 28.7939 138.642 28.1396 137.382C27.4951 136.112 27.1729 134.613 27.1729 132.885C27.1729 131.205 27.4951 129.73 28.1396 128.461C28.7939 127.191 29.7119 126.2 30.8936 125.487C32.085 124.774 33.4814 124.418 35.083 124.418C36.167 124.418 37.1777 124.594 38.1152 124.945C39.0527 125.287 39.873 125.805 40.5762 126.498C41.2793 127.182 41.8262 128.046 42.2168 129.091C42.6074 130.126 42.8027 131.342 42.8027 132.738V133.969H28.9746V131.171H40.6055L38.4961 131.903C38.4961 131.073 38.3691 130.351 38.1152 129.735C37.8613 129.12 37.4805 128.646 36.9727 128.314C36.4746 127.973 35.8545 127.802 35.1123 127.802C34.3701 127.802 33.7402 127.973 33.2227 128.314C32.7148 128.656 32.3242 129.12 32.0508 129.706C31.7773 130.292 31.6406 130.966 31.6406 131.728V133.705C31.6406 134.594 31.7969 135.355 32.1094 135.99C32.4219 136.615 32.8564 137.099 33.4131 137.44C33.9795 137.772 34.6289 137.938 35.3613 137.938C35.8691 137.938 36.3281 137.865 36.7383 137.719C37.1484 137.572 37.5 137.357 37.793 137.074C38.0957 136.791 38.3203 136.449 38.4668 136.049L42.6562 136.327C42.4512 137.333 42.0215 138.212 41.3672 138.964C40.7227 139.706 39.8877 140.287 38.8623 140.707C37.8369 141.117 36.6504 141.322 35.3027 141.322ZM50.7275 141.264C49.4775 141.264 48.3496 140.941 47.3438 140.297C46.3379 139.652 45.542 138.705 44.9561 137.455C44.3701 136.195 44.0771 134.657 44.0771 132.841C44.0771 130.966 44.3799 129.403 44.9854 128.153C45.5908 126.903 46.3965 125.971 47.4023 125.355C48.4082 124.73 49.5068 124.418 50.6982 124.418C51.6162 124.418 52.3828 124.574 52.998 124.887C53.6133 125.189 54.1113 125.57 54.4922 126.029C54.873 126.488 55.1611 126.942 55.3564 127.392H55.4883V119.174H60.0293V141H55.5615V138.378H55.3564C55.1514 138.827 54.8535 139.276 54.4629 139.726C54.0723 140.165 53.5693 140.531 52.9541 140.824C52.3486 141.117 51.6064 141.264 50.7275 141.264ZM52.1484 137.66C52.8809 137.66 53.501 137.46 54.0088 137.06C54.5264 136.649 54.917 136.083 55.1807 135.36C55.4541 134.638 55.5908 133.793 55.5908 132.826C55.5908 131.85 55.459 131.005 55.1953 130.292C54.9316 129.569 54.541 129.013 54.0234 128.622C53.5059 128.222 52.8809 128.021 52.1484 128.021C51.4062 128.021 50.7812 128.227 50.2734 128.637C49.7656 129.047 49.3799 129.613 49.1162 130.336C48.8525 131.049 48.7207 131.879 48.7207 132.826C48.7207 133.773 48.8525 134.613 49.1162 135.346C49.3799 136.068 49.7656 136.635 50.2734 137.045C50.791 137.455 51.416 137.66 52.1484 137.66ZM62.6807 141V124.623H67.207V141H62.6807ZM64.9365 122.528C64.2627 122.528 63.6865 122.304 63.208 121.854C62.7295 121.405 62.4902 120.863 62.4902 120.229C62.4902 119.594 62.7295 119.057 63.208 118.617C63.6865 118.168 64.2627 117.943 64.9365 117.943C65.6201 117.943 66.2012 118.168 66.6797 118.617C67.1582 119.057 67.3975 119.594 67.3975 120.229C67.3975 120.863 67.1582 121.405 66.6797 121.854C66.2012 122.304 65.6201 122.528 64.9365 122.528Z" fill="black"/>
<path d="M79.7314 141.293C77.7979 141.293 76.0645 140.854 74.5312 139.975C72.998 139.096 71.7871 137.821 70.8984 136.151C70.0098 134.481 69.5654 132.465 69.5654 130.102C69.5654 127.719 70.0098 125.692 70.8984 124.022C71.7969 122.343 73.0127 121.068 74.5459 120.199C76.0889 119.32 77.8174 118.881 79.7314 118.881C81.001 118.881 82.1777 119.062 83.2617 119.423C84.3457 119.774 85.3027 120.292 86.1328 120.976C86.9727 121.649 87.6562 122.479 88.1836 123.466C88.7109 124.442 89.0479 125.561 89.1943 126.82H84.5361C84.4482 126.225 84.2725 125.688 84.0088 125.209C83.7549 124.73 83.418 124.325 82.998 123.993C82.5879 123.661 82.1143 123.407 81.5771 123.231C81.0498 123.046 80.4688 122.953 79.834 122.953C78.7207 122.953 77.7393 123.236 76.8896 123.803C76.0498 124.359 75.3955 125.17 74.9268 126.234C74.4678 127.289 74.2383 128.578 74.2383 130.102C74.2383 131.654 74.4727 132.963 74.9414 134.027C75.4102 135.082 76.0645 135.878 76.9043 136.415C77.7441 136.952 78.7158 137.221 79.8193 137.221C80.4346 137.221 81.0059 137.138 81.5332 136.972C82.0605 136.806 82.5293 136.566 82.9395 136.254C83.3496 135.941 83.6914 135.561 83.9648 135.111C84.248 134.652 84.4385 134.13 84.5361 133.544H89.1943C89.0771 134.55 88.7793 135.517 88.3008 136.444C87.832 137.372 87.1924 138.202 86.3818 138.935C85.5713 139.657 84.6094 140.233 83.4961 140.663C82.3828 141.083 81.1279 141.293 79.7314 141.293ZM96.0059 131.537V141H91.4795V119.174H95.8594V127.538H96.0645C96.4355 126.571 97.0312 125.81 97.8516 125.253C98.6816 124.696 99.7168 124.418 100.957 124.418C102.09 124.418 103.081 124.667 103.931 125.165C104.78 125.653 105.439 126.356 105.908 127.274C106.387 128.192 106.626 129.296 106.626 130.585V141H102.085V131.391C102.085 130.385 101.826 129.599 101.309 129.032C100.801 128.466 100.083 128.183 99.1553 128.183C98.5303 128.183 97.9834 128.319 97.5146 128.593C97.0459 128.856 96.6748 129.237 96.4014 129.735C96.1377 130.233 96.0059 130.834 96.0059 131.537ZM116.748 141.322C115.068 141.322 113.618 140.98 112.397 140.297C111.177 139.613 110.239 138.642 109.585 137.382C108.94 136.112 108.618 134.613 108.618 132.885C108.618 131.205 108.94 129.73 109.585 128.461C110.239 127.191 111.157 126.2 112.339 125.487C113.53 124.774 114.927 124.418 116.528 124.418C117.612 124.418 118.623 124.594 119.561 124.945C120.498 125.287 121.318 125.805 122.021 126.498C122.725 127.182 123.271 128.046 123.662 129.091C124.053 130.126 124.248 131.342 124.248 132.738V133.969H110.42V131.171H122.051L119.941 131.903C119.941 131.073 119.814 130.351 119.561 129.735C119.307 129.12 118.926 128.646 118.418 128.314C117.92 127.973 117.3 127.802 116.558 127.802C115.815 127.802 115.186 127.973 114.668 128.314C114.16 128.656 113.77 129.12 113.496 129.706C113.223 130.292 113.086 130.966 113.086 131.728V133.705C113.086 134.594 113.242 135.355 113.555 135.99C113.867 136.615 114.302 137.099 114.858 137.44C115.425 137.772 116.074 137.938 116.807 137.938C117.314 137.938 117.773 137.865 118.184 137.719C118.594 137.572 118.945 137.357 119.238 137.074C119.541 136.791 119.766 136.449 119.912 136.049L124.102 136.327C123.896 137.333 123.467 138.212 122.812 138.964C122.168 139.706 121.333 140.287 120.308 140.707C119.282 141.117 118.096 141.322 116.748 141.322ZM133.564 141.322C131.895 141.322 130.459 140.966 129.258 140.253C128.057 139.53 127.134 138.539 126.489 137.279C125.845 136.01 125.522 134.545 125.522 132.885C125.522 131.205 125.845 129.73 126.489 128.461C127.144 127.191 128.071 126.2 129.272 125.487C130.474 124.774 131.904 124.418 133.564 124.418C134.99 124.418 136.235 124.677 137.3 125.194C138.374 125.712 139.224 126.439 139.849 127.377C140.474 128.314 140.815 129.418 140.874 130.688H136.597C136.519 130.141 136.353 129.662 136.099 129.252C135.845 128.842 135.508 128.524 135.088 128.3C134.668 128.075 134.18 127.963 133.623 127.963C132.92 127.963 132.305 128.153 131.777 128.534C131.26 128.905 130.854 129.457 130.562 130.189C130.278 130.912 130.137 131.791 130.137 132.826C130.137 133.861 130.278 134.75 130.562 135.492C130.854 136.234 131.26 136.801 131.777 137.191C132.305 137.582 132.92 137.777 133.623 137.777C134.404 137.777 135.063 137.533 135.601 137.045C136.138 136.547 136.47 135.863 136.597 134.994H140.874C140.806 136.244 140.469 137.348 139.863 138.305C139.258 139.252 138.423 139.994 137.358 140.531C136.294 141.059 135.029 141.322 133.564 141.322ZM146.938 136.283L146.953 130.849H147.612L152.842 124.623H158.057L151.025 132.87H149.927L146.938 136.283ZM142.837 141V119.174H147.363V141H142.837ZM153.047 141L148.242 133.881L151.26 130.658L158.364 141H153.047Z" fill="#3177FE"/>
</svg>
